<?xml version="1.0" encoding="utf-8"?>
<!-- Generator: Adobe Illustrator 23.0.1, SVG Export Plug-In . SVG Version: 6.00 Build 0)  -->
<svg version="1.1" id="Layer_1" xmlns="http://www.w3.org/2000/svg" xmlns:xlink="http://www.w3.org/1999/xlink" x="0px" y="0px"
	 viewBox="0 0 425.2 425.2" style="enable-background:new 0 0 425.2 425.2;" xml:space="preserve">
<style type="text/css">
	.st0{fill:none;stroke:#FFFFFF;stroke-miterlimit:10;}
	.st1{fill:#0000FF;}
	.st2{fill:#FF0000;}
	.st3{fill:#00FF00;}
</style>
<g>
	<path class="st2" d="M182.16,169.53c0.29,1.77,0.59,3.54,0.87,5.27l0.53,3.22c0.46,2.76,0.88,5.24,1.29,7.43
		c0.39,2.11,0.75,3.93,1.09,5.41c0.31,1.34,0.52,2.06,0.65,2.46c0.05-0.01,0.13-0.03,0.23-0.06c0.37-0.12,0.8-0.26,1.29-0.44
		c0.5-0.18,1.02-0.36,1.56-0.54c0.57-0.19,1.11-0.31,1.59-0.36c0.56-0.06,1.04,0.03,1.42,0.25c0.03,0.02,0.06,0.04,0.08,0.06
		c-0.3-1.17-0.61-2.35-0.93-3.55c-1.03-3.88-2.1-7.9-3.23-11.91c-1.32-4.7-2.43-8.41-3.48-11.69c-1.41-4.41-2.54-7.79-3.57-10.63
		l-0.03-0.23c0-0.14,0.01-0.29,0.04-0.43l0.05-0.24l0.22-0.11c1.19-0.59,1.83-0.9,2.96-1.43c0,0,0,0-0.01-0.01
		c-0.15-0.14-0.28-0.27-0.4-0.37c-0.01-0.01-0.02-0.02-0.03-0.03c-0.35,0.06-0.73,0.16-1.13,0.31c-0.48,0.18-0.95,0.4-1.42,0.68
		c-0.52,0.3-0.95,0.62-1.32,0.96c-0.36,0.34-0.67,0.68-0.95,1.02c0.37,1.93,0.78,4.16,1.21,6.68
		C181.21,163.86,181.68,166.65,182.16,169.53z"/>
	<path class="st2" d="M206,168.91c0.38,1.16,0.84,2.12,1.36,2.86c0.45,0.64,0.91,0.97,1.43,0.93c0.68-0.02,1.24-0.23,1.72-0.65
		c0.54-0.48,1.01-1,1.4-1.55c0.41-0.58,0.77-1.11,1.07-1.6c0.26-0.42,0.67-0.97,1.26-0.98c1.47,0.17,2.18,0.26,3.59,0.44l0.42,0.05
		l0.01,0.43c0,0.06,0.04,0.24,0.09,0.52c0.07,0.38,0.1,0.6,0.1,0.66c-0.02,0.54-0.33,1.11-0.97,1.83c-0.54,0.61-1.21,1.39-2,2.34
		c-0.78,0.94-1.63,2.05-2.55,3.3c-0.88,1.21-1.73,2.61-2.51,4.17c-0.76,1.51-1.39,3.21-1.88,5.05c-0.48,1.8-0.7,3.7-0.66,5.64
		c0.03,1.42,0.25,2.48,0.66,3.25c0.35,0.65,0.82,0.94,1.46,0.93c0.74-0.02,1.55-0.42,2.41-1.2c0.95-0.87,1.87-1.98,2.72-3.29
		c0.88-1.36,1.73-2.86,2.52-4.46c0.74-1.51,1.42-2.98,2.02-4.36l0.09-0.22l0.23-0.06c0.12-0.03,0.23-0.06,0.34-0.1l0.05-0.13
		c0.7-1.9,1.06-2.88,1.74-4.79c-0.3-2.58-0.63-5-0.99-7.21c-0.39-2.37-0.79-4.65-1.19-6.77c-0.42-2.22-0.86-4.47-1.31-6.72
		c-0.4-1.99-0.8-4.18-1.19-6.5c-0.19,0.04-0.38,0.08-0.57,0.1c-0.37,0.05-0.73,0.08-1.08,0.08l-0.25,0l-0.04-0.05
		c-1.07,1.51-1.65,2.37-2.73,4.01l-0.15,0.22l-0.27,0c0,0-0.01,0-0.01,0c-0.93,0-1.22-1.3-1.32-1.73c-0.2-0.89-0.41-1.84-0.63-2.84
		c-0.21-0.96-0.47-1.83-0.79-2.59c-0.36-0.85-0.79-0.85-0.94-0.84c-0.59,0.01-1.11,0.31-1.58,0.9c-0.54,0.68-0.98,1.58-1.33,2.76
		c-0.37,1.22-0.65,2.68-0.83,4.35c-0.18,1.69-0.25,3.52-0.21,5.42c0.03,1.39,0.16,2.85,0.37,4.35
		C205.31,166.38,205.61,167.73,206,168.91z"/>
	<path class="st2" d="M224.43,162.33c0.44,2.64,0.84,5.08,1.19,7.25c0.19,1.19,0.36,2.17,0.49,2.92c0.44-0.92,0.92-2.06,1.42-3.39
		c0.74-1.96,1.47-4.16,2.17-6.54c0.66-2.26,1.23-4.52,1.69-6.71c0.46-2.2,0.69-3.97,0.69-5.39c0-0.97-0.1-1.75-0.29-2.31
		c-0.18-0.51-0.4-0.89-0.64-1.12c-0.24-0.23-0.51-0.38-0.83-0.47c-0.35-0.1-0.69-0.15-1.01-0.16c-0.71-0.03-1.35,0-1.91,0.09
		c-0.55,0.09-1.11,0.24-1.65,0.46c-0.59,0.24-1.2,0.52-1.82,0.84c-0.57,0.29-1.21,0.62-1.93,0.98c0.34,1.61,0.72,3.56,1.12,5.79
		C223.54,157.08,223.99,159.69,224.43,162.33z"/>
	<path class="st2" d="M170.71,169.08c0.51,3.38,1.03,6.85,1.57,10.26c0.59,3.75,1.1,6.85,1.56,9.46c0.5,2.87,0.96,5.38,1.37,7.53
		c0.17,0.86,0.32,1.62,0.46,2.33c0.48-0.41,0.96-0.79,1.44-1.11c0.91-0.6,1.83-1.1,2.73-1.47c0.77-0.32,1.51-0.59,2.17-0.82
		c-0.43-2.12-0.89-4.54-1.36-7.19c-0.58-3.21-1.17-6.71-1.8-10.36c-0.62-3.65-1.24-7.27-1.85-10.7c-0.52-2.91-1.03-5.58-1.49-7.94
		c-0.47,0.19-0.94,0.57-1.4,1.15c-0.61,0.76-1.2,1.62-1.76,2.56c-0.57,0.96-1.12,1.9-1.65,2.8c-0.14,0.24-0.28,0.47-0.42,0.68
		c0.12,0.79,0.24,1.59,0.36,2.39L170.71,169.08z"/>
	<path class="st2" d="M124.94,192.78c0.55,0.17,1.19,0.24,1.92,0.2c0.55-0.03,1.12-0.13,1.71-0.29c-0.13-0.13-0.3-0.27-0.52-0.43
		c-0.51-0.38-1.1-0.69-1.74-0.93c-0.64-0.24-1.31-0.39-1.99-0.44c-0.45-0.03-0.85,0-1.2,0.1c0.1,0.4,0.27,0.74,0.52,1.01
		C123.99,192.35,124.41,192.61,124.94,192.78z"/>
	<path class="st2" d="M153.53,181.4c0.52,1.96,1,3.81,1.45,5.55l0.78,2.99c0.21,0.81,0.4,1.54,0.58,2.21
		c-0.04-0.19-0.08-0.38-0.12-0.58c-0.34-1.67-0.68-3.45-1.02-5.32l-1.01-5.42c-0.33-1.74-0.63-3.34-0.92-4.8
		c-0.29-1.46-0.53-2.67-0.73-3.63c-0.11-0.51-0.42-1.29-0.88-2.19c-0.51-1-1.08-1.98-1.71-2.9c-0.42-0.61-0.86-1.16-1.3-1.69
		c0.72,1.86,1.46,4,2.21,6.39C151.69,174.7,152.57,177.77,153.53,181.4z"/>
	<path class="st2" d="M240.04,177.24c0.09,1.77,0.2,3.54,0.31,5.31c0.4-0.85,0.78-1.68,1.3-2.83l0.2-0.43l1.32,0.53l0.09,0.15
		c0.32,0.56,0.67,1.4,1.03,2.48c0.36,1.07,0.65,2.83,0.86,5.21c1.1,2.45,2.35,4.29,3.83,5.61c1.35,1.21,2.67,1.83,3.9,1.83
		c0.37,0,0.79-0.18,1.26-0.54c0.52-0.4,1-0.95,1.42-1.66c0.44-0.74,0.82-1.59,1.12-2.53c0.3-0.94,0.44-1.98,0.43-3.1
		c-0.02-1.57-0.29-2.89-0.83-3.92c-0.55-1.06-1.28-2-2.16-2.77c-0.92-0.81-1.96-1.51-3.09-2.08c-1.19-0.6-2.4-1.21-3.63-1.81
		c-1.3-0.64-2.5-1.32-3.66-2.07c-1.23-0.79-2.34-1.83-3.3-3.07c-0.26-0.34-0.51-0.71-0.75-1.11c0.06,1.42,0.15,2.95,0.23,4.54
		L240.04,177.24z"/>
	<path class="st2" d="M256.59,168.67c-0.08,0.27-0.16,0.53-0.26,0.76c-0.26,0.62-0.46,1.44-0.61,2.42c0.44,0.47,0.86,0.96,1.27,1.47
		C256.82,171.72,256.69,170.17,256.59,168.67z"/>
	<path class="st2" d="M294.6,192.03c-0.43,0.73-0.95,1.46-1.57,2.23c0.43-0.09,0.86-0.17,1.38-0.26
		C294.45,193.36,294.52,192.7,294.6,192.03z"/>
	<path class="st2" d="M284.72,188.4c0.2,1.84,0.41,3.57,0.64,5.13c0.17,1.2,0.38,2.19,0.62,3c0.66-0.5,1.28-1.05,1.86-1.66
		c0.76-0.8,1.43-1.64,2-2.5c0.59-0.9,1.06-1.8,1.43-2.76c0.38-0.97,0.62-1.9,0.75-2.85c0.11-0.82,0.15-1.66,0.13-2.48
		c-0.02-0.81-0.14-1.59-0.36-2.33c-0.22-0.73-0.58-1.42-1.05-2.06c-0.47-0.64-1.11-1.2-1.89-1.64c-0.99-0.57-1.91-0.87-2.75-0.9
		c-0.79-0.02-1.64,0.16-2.52,0.57c0.19,1.42,0.38,3.03,0.56,4.81C284.32,184.63,284.52,186.54,284.72,188.4z"/>
	<path class="st2" d="M299.23,194.03c-0.08-0.28-0.17-0.6-0.27-0.97c-0.17-0.7-0.35-1.44-0.53-2.22c-0.09-0.4-0.19-0.8-0.28-1.18
		c-0.1,1.44-0.19,2.65-0.33,4.33c0.22,0.02,0.46,0.02,0.72,0.03C298.78,194.03,299.01,194.03,299.23,194.03z"/>
	<path class="st2" d="M121.28,197.13c0.05,0.49,0.25,1.1,0.61,1.85c0.32,0.67,0.75,1.33,1.29,2.03c0.53,0.67,1.15,1.33,1.86,1.97
		c0.69,0.62,1.46,1.17,2.3,1.62c0.82,0.45,1.71,0.78,2.65,1c0.92,0.22,1.89,0.27,2.89,0.15c0.23-0.03,0.39-0.09,0.5-0.2
		c0.13-0.13,0.22-0.3,0.29-0.51c0.07-0.25,0.1-0.52,0.1-0.8c0-0.32-0.02-0.63-0.04-0.93c-0.02-0.18-0.06-0.54-0.21-1.24
		c-0.12-0.59-0.28-1.25-0.48-1.97c-0.2-0.74-0.45-1.49-0.73-2.25c-0.28-0.76-0.61-1.43-0.97-2c-0.35-0.55-0.73-0.97-1.13-1.24
		c-0.33-0.23-0.67-0.27-1.06-0.14c-0.09,0.03-0.13,0.06-0.15,0.07c0.03-0.01,0.02,0.05,0.02,0.1c-0.01,0.17-0.01,0.33-0.12,0.47
		c-0.21,0.3-0.71,0.42-1.63,0.63c-0.25,0.06-0.5,0.12-0.71,0.17c-0.73,0.2-1.46,0.36-2.17,0.46c-0.7,0.1-1.39,0.13-2.05,0.1
		c-0.41-0.02-0.79-0.08-1.14-0.18c0.04,0.21,0.06,0.44,0.08,0.65L121.28,197.13z"/>
	<path class="st2" d="M267.11,162.49c0.67,1.19,1.5,2.25,2.45,3.16c0.68,0.65,1.4,1.19,2.19,1.64c-0.17-0.62-0.43-1.35-0.77-2.21
		c-0.56-1.42-1.24-2.86-2.01-4.29c-0.77-1.42-1.59-2.72-2.44-3.87c-0.57-0.76-1.03-1.25-1.4-1.57c0.01,1.06,0.15,2.14,0.43,3.23
		C265.92,159.99,266.44,161.3,267.11,162.49z"/>
	<path class="st2" d="M241.25,162.41c0.36,0.42,0.75,0.76,1.14,1.02c0.42,0.27,0.8,0.51,1.14,0.69l0.09,0.06
		c0.54,0.47,1.31,1,2.36,1.63c1.04,0.62,2.11,1.24,3.19,1.84c1.09,0.61,2.07,1.17,2.94,1.68c0.35,0.21,0.66,0.39,0.92,0.55
		c-0.5-2.84-1.13-5.38-1.87-7.55c-0.8-2.37-1.69-4.37-2.64-5.95c-0.92-1.54-1.89-2.73-2.88-3.54c-0.97-0.8-1.85-1.23-2.62-1.28
		c-0.01,0-0.02,0-0.03,0c-0.13,0-0.36,0.05-0.72,0.28c-0.35,0.22-0.69,0.58-1.02,1.09c-0.35,0.54-0.66,1.25-0.91,2.11
		c-0.25,0.86-0.37,1.96-0.36,3.27c0.01,1.02,0.14,1.86,0.38,2.5C240.59,161.47,240.9,162.01,241.25,162.41z"/>
	<path class="st2" d="M262.7,179.31c0.51,2.4,1.12,4.71,1.83,6.87c0.7,2.14,1.51,4.02,2.41,5.57c0.87,1.5,1.82,2.68,2.92,3.59
		c1,0.83,2.11,1.3,3.36,1.43c0.27,0.03,0.47-0.05,0.66-0.24c0.25-0.26,0.46-0.62,0.63-1.09c0.19-0.5,0.33-1.07,0.42-1.67
		c0.1-0.63,0.18-1.25,0.24-1.84c0.05-0.53,0.09-1.41,0.11-2.53c0.02-1.2,0.01-2.57-0.04-4.06c-0.05-1.53-0.15-3.14-0.31-4.81
		c-0.16-1.67-0.4-3.26-0.71-4.73c-0.32-1.46-0.72-2.74-1.2-3.8c-0.45-0.99-0.97-1.62-1.55-1.87c-0.02,0.11-0.04,0.23-0.06,0.33
		c-0.06,0.34-0.09,0.51-0.3,0.63c-0.33,0.19-0.58,0.11-2.5-0.85l-0.69-0.34c-0.99-0.48-1.93-1.06-2.81-1.73
		c-0.89-0.68-1.74-1.51-2.53-2.45c-0.46-0.56-0.88-1.17-1.26-1.84c0,0.06,0,0.13,0,0.19c-0.01,0.54-0.04,1.1-0.07,1.64l-0.03,0.51
		c-0.07,1.5,0.03,3.42,0.32,6.05C261.81,174.55,262.2,176.93,262.7,179.31z"/>
	<path class="st2" d="M299.12,213.36c0.62,0.29,1.31,0.44,2.18,0.43c0.61-0.01,1.27-0.1,1.97-0.29c-0.17-0.14-0.37-0.3-0.62-0.47
		c-0.6-0.42-1.28-0.82-2.08-1.22c-0.78-0.39-1.57-0.72-2.34-0.98c-0.49-0.16-0.91-0.25-1.27-0.27c0.12,0.57,0.34,1.07,0.64,1.5
		C298,212.64,298.51,213.08,299.12,213.36z"/>
	<path class="st2" d="M248.38,251.91c0.29,1.46,0.57,2.83,0.83,4.09c0.4,1.92,0.78,3.69,1.16,5.29c-0.26-2.89-0.5-5.92-0.84-10.25
		C249.13,251.35,248.78,251.61,248.38,251.91z"/>
	<path class="st2" d="M200.77,216.55c0.05-0.97,0-1.74-0.17-2.29c-0.15-0.5-0.34-0.86-0.57-1.07c-0.22-0.21-0.47-0.34-0.77-0.41
		c-0.34-0.07-0.68-0.11-1-0.1c-0.71,0.02-1.36,0.09-1.93,0.21c-0.56,0.12-1.13,0.31-1.7,0.57c-0.59,0.27-1.23,0.58-1.9,0.94
		c-0.6,0.33-1.29,0.69-2.06,1.08c0.24,1.56,0.49,3.43,0.75,5.56c0.29,2.38,0.57,4.83,0.83,7.3c0.27,2.47,0.51,4.74,0.72,6.76
		c0.12,1.1,0.21,2,0.3,2.7c0.53-0.88,1.1-1.97,1.72-3.25c0.9-1.88,1.79-3.97,2.64-6.21c0.82-2.16,1.53-4.34,2.13-6.48
		C200.35,219.76,200.69,217.97,200.77,216.55z"/>
	<path class="st2" d="M253.05,230.95c-0.47-1.73-0.92-3.35-1.34-4.85c0.24,2.67,0.45,5.01,0.67,7.4c0.25,2.77,0.5,5.6,0.82,9.09
		c0.29-0.24,0.6-0.52,0.92-0.84c0.36-0.35,0.72-0.72,1.05-1.1c0.23-0.25,0.41-0.47,0.56-0.63c-0.32-0.84-0.71-2.05-1.15-3.59
		C254.07,234.68,253.56,232.85,253.05,230.95z"/>
	<path class="st2" d="M309.38,221.91c-0.16-0.55-0.37-1.15-0.64-1.81c-0.26-0.64-0.57-1.3-0.94-1.97c-0.35-0.63-0.75-1.2-1.19-1.69
		c-0.43-0.46-0.89-0.82-1.37-1.05c-0.43-0.21-0.88-0.23-1.35-0.06c-0.16,0.06-0.21,0.1-0.21,0.1c0.03-0.01,0.02,0.07,0.02,0.13
		c0,0.18-0.01,0.33-0.1,0.48c-0.22,0.33-0.72,0.48-1.89,0.79c-0.27,0.07-0.53,0.14-0.75,0.21c-0.87,0.26-1.72,0.44-2.51,0.52
		c-0.84,0.09-1.64,0.05-2.39-0.1c-0.47-0.09-0.91-0.25-1.31-0.48c0,0.06,0.01,0.12,0.02,0.18c0.04,0.31,0.06,0.64,0.07,0.96
		l0.02,0.31c0.05,0.85,0.29,1.89,0.7,3.1c0.39,1.13,0.89,2.2,1.49,3.16c0.62,0.99,1.34,1.84,2.14,2.53
		c0.79,0.68,1.67,1.13,2.64,1.36c0.95,0.22,1.97,0.2,3.12-0.07c1.08-0.25,2.28-0.79,3.54-1.61c0.34-0.22,0.61-0.48,0.8-0.78
		c0.19-0.31,0.33-0.63,0.4-0.97c0.08-0.35,0.11-0.7,0.1-1.03c-0.02-0.36-0.05-0.7-0.09-1.01
		C309.65,222.93,309.58,222.57,309.38,221.91z"/>
	<path class="st2" d="M185.99,217.53c-0.18,0.04-0.37,0.08-0.55,0.11c-0.37,0.06-0.74,0.1-1.09,0.11l-0.26,0.01l-0.13-0.18
		l-2.23,0.1c-0.42,0.02-0.72-0.36-0.96-0.72c-0.21-0.32-0.45-0.68-0.73-1.07c-0.27-0.37-0.55-0.71-0.85-1
		c-0.14-0.14-0.37-0.31-0.56-0.31c-0.61,0.02-1.28,0.28-2.12,0.81c-0.78,0.5-1.54,1.39-2.25,2.64c-0.75,1.33-1.4,3.13-1.98,5.5
		c-0.59,2.39-0.98,5.61-1.18,9.57c-0.19,3.87-0.14,7.57,0.14,10.99c0.29,3.45,0.76,6.46,1.42,8.96c0.65,2.47,1.5,4.42,2.5,5.82
		c0.92,1.28,1.97,1.93,3.21,1.99c0.54,0.03,0.98-0.12,1.34-0.46c0.93-0.85,1.47-2.91,1.61-6.14c0.03-0.66,0.04-1.59,0.04-2.82
		c0-1.23-0.02-2.58-0.06-4.05c-0.04-1.47-0.09-2.98-0.14-4.54c-0.05-1.55-0.11-2.97-0.19-4.26c-0.07-1.27-0.16-2.32-0.27-3.12
		c-0.05-0.36-0.09-0.59-0.12-0.73c-0.2,0.06-0.47,0.18-0.83,0.41c-0.52,0.34-1.06,0.77-1.59,1.27c-0.51,0.48-1.01,1.03-1.55,1.68
		c-0.5,0.61-0.93,1.18-1.28,1.69l-0.6,0.89l-1.34-4.8l0.16-0.2c0.51-0.64,1.14-1.3,1.91-2.01c0.73-0.67,1.53-1.39,2.45-2.13
		c0.9-0.72,1.84-1.43,2.79-2.1c0.95-0.67,1.88-1.28,2.76-1.81c0.86-0.52,1.66-0.97,2.39-1.35c0.45-0.23,0.84-0.4,1.19-0.54
		c-0.1-0.7-0.2-1.41-0.3-2.12C186.47,221.75,186.22,219.7,185.99,217.53z"/>
	<path class="st2" d="M284.95,223.82c-0.51-1.03-1-2.02-1.46-2.93c0.2,1.18,0.38,2.26,0.56,3.3c0.39,2.27,0.74,4.38,1.23,7.14
		c0.29-0.29,0.6-0.6,0.92-0.95c0.35-0.37,0.69-0.75,1.02-1.12c0.18-0.2,0.33-0.38,0.46-0.52c-0.32-0.44-0.69-1.04-1.1-1.79
		C286.04,225.99,285.5,224.94,284.95,223.82z"/>
	<path class="st2" d="M280.04,225.29c-0.18-1.81-0.38-3.58-0.58-5.29c-0.2-1.69-0.44-3.3-0.7-4.79c-0.01-0.02-0.08-0.17-0.18-0.38
		c-0.12-0.24-0.25-0.52-0.4-0.82c-0.11-0.22-0.21-0.46-0.31-0.71c0.02,0.09,0.03,0.19,0.04,0.3c0.04,0.46-0.03,0.87-0.21,1.21
		c-0.17,0.3-0.36,0.57-0.59,0.79c-0.24,0.24-0.5,0.42-0.8,0.55c-0.29,0.13-0.53,0.2-0.75,0.23c-0.65,0.08-1.27,0-1.84-0.24
		c-0.42-0.17-0.92-0.24-1.46-0.19c-1.05,0.09-2.01,0.54-2.93,1.37c-0.99,0.89-1.81,2.19-2.5,3.96c-0.71,1.83-1.24,4.22-1.57,7.11
		c-0.34,2.94-0.39,6.38-0.15,10.22c0.16,2.5,0.44,4.78,0.84,6.77c0.4,1.98,0.91,3.61,1.51,4.84c0.57,1.16,1.21,1.96,1.9,2.38
		c0.61,0.37,1.23,0.35,1.96-0.07c0.65-0.36,1.25-0.97,1.79-1.79c0.56-0.86,1.08-1.88,1.55-3.01c0.47-1.16,0.94-2.42,1.38-3.77
		l1.35-4.11c0.15-0.54,0.26-1.21,0.29-1.97c0.04-0.83,0.13-1.66,0.28-2.48c0.15-0.85,0.39-1.64,0.73-2.35
		c0.37-0.77,1-1.35,1.87-1.72c0.03-0.01,0.07-0.03,0.11-0.04c-0.02-0.2-0.05-0.39-0.07-0.6
		C280.41,228.91,280.22,227.11,280.04,225.29z"/>
	<path class="st2" d="M213.54,231.55c-0.46-2-0.89-3.84-1.3-5.51c-0.01-0.03-0.01-0.06-0.02-0.08l0.21,5.26
		c0.15,3.88,0.3,7.52,0.5,12.44c0,0,0.01,0,0.01-0.01c0.37-0.22,0.76-0.49,1.19-0.79c0.42-0.31,0.83-0.63,1.23-0.97
		c0.26-0.22,0.47-0.4,0.64-0.55c-0.31-0.93-0.67-2.25-1.08-3.94C214.46,235.51,214,233.56,213.54,231.55z"/>
	<path class="st2" d="M340.52,188.44L340.52,188.44c-0.14,0-0.27,0.02-0.4,0.02c-0.81-3.54-3.22-6.47-6.43-7.99l-0.62-42.35
		c0.4-0.05,0.8-0.11,1.19-0.19c0.72-0.15,1.42-0.35,2.11-0.61c0.92-0.35,1.77-0.81,2.55-1.41c1.38-1.06,2.4-2.4,3.03-4.02
		c0.43-1.11,0.65-2.27,0.72-3.45c0.07-1.33-0.04-2.64-0.3-3.94c-0.11-0.53-0.22-1.07-0.35-1.59c-0.15-0.57-0.33-1.13-0.5-1.68
		c-0.1-0.32-0.23-0.95-0.23-0.95s-1.11,0.93-1.28,1.06c-0.97,0.74-1.98,1.4-3.09,1.92c-0.92,0.44-1.88,0.76-2.88,0.93
		c-0.59,0.1-1.19,0.1-1.79,0.13c-0.16,0.01-0.33-0.01-0.53-0.02c0.07-0.08,0.12-0.13,0.16-0.17c0.51-0.54,0.97-1.12,1.34-1.76
		c0.38-0.66,0.61-1.38,0.71-2.13c0.2-1.42-0.02-2.76-0.8-3.97c-0.9-1.39-2.22-2.15-3.83-2.41c-0.7-0.11-1.4-0.09-2.1,0.04
		c-0.68,0.12-1.33,0.34-1.93,0.66c-1.07,0.56-1.97,1.33-2.68,2.31c-0.21,0.29-0.48,0.46-0.81,0.55c-0.31,0.08-0.61,0.19-0.92,0.22
		c-0.4,0.04-0.8,0.02-1.2,0c-0.25-0.02-0.5-0.08-0.75,0.01c-0.61,0.22-0.8,0.74-0.72,1.28c0.07,0.43,0.26,0.8,0.49,1.15
		c0.48,0.72,1.09,1.3,1.83,1.75c0.52,0.32,1.08,0.54,1.68,0.61c0.34,0.04,0.67,0.02,0.99-0.06l1.13-0.28l-1.3,1.71
		c-0.18,0.22-0.36,0.45-0.56,0.65c-0.83,0.82-1.57,1.7-2.08,2.75c-0.47,0.96-0.78,1.95-0.81,3.03c-0.03,0.97,0.19,1.89,0.62,2.77
		c0.26,0.52,0.61,0.98,0.97,1.43c0.09,0.11,0.19,0.2,0.28,0.3c0.05,0.06,0.18,0.19,0.21,0.22c0.66,0.63,1.4,1.16,2.2,1.59
		c0.7,0.38,1.43,0.71,2.19,0.93c0.67,0.19,1.35,0.39,2.03,0.53l0.6,41.39c-0.39,0-0.77,0.02-1.15,0.06
		c-15.89-36.59-60.36-62.93-112.75-62.93c-52.63,0-97.28,26.59-112.97,63.45c-1.13-0.37-2.34-0.57-3.6-0.57
		c-5.62,0-10.35,4.01-11.47,9.31c-0.67-0.12-1.36-0.19-2.06-0.19h0c-6.45,0-11.73,5.28-11.73,11.73v25.63
		c0,6.45,5.28,11.73,11.73,11.73h0c0.7,0,1.39-0.07,2.06-0.19c1.12,5.3,5.85,9.31,11.47,9.31c2.47,0,4.76-0.78,6.65-2.09
		c7.12,13.33,18.12,25.08,31.92,34.4l0.9,7.99c0,0,24.99,24.52,77.1,24.52c60.62,0,75.31-25.37,75.31-25.37l0.43-5.66
		c14.45-9.29,26.02-21.18,33.55-34.75c1.42,0.62,2.99,0.96,4.63,0.96c5.56,0,10.24-3.92,11.43-9.13c0.14,0,0.27,0.02,0.4,0.02h0
		c6.45,0,11.73-5.28,11.73-11.73v-25.63C352.25,193.72,346.98,188.44,340.52,188.44z M133.84,172.96c1.29-1.73,1.92-2.59,3.18-4.31
		l0.63-0.86l0.26,1.03c0.12,0.5,0.28,1.37,0.46,2.58c0.19,1.25,0.43,2.77,0.72,4.59c0.29,1.82,0.63,3.85,1,6.06
		c0.38,2.25,0.81,4.48,1.28,6.63c0.48,2.21,1,4.3,1.55,6.2c0.49,1.69,1.03,3.16,1.61,4.39c0.05-0.06,0.11-0.13,0.17-0.23
		c0.31-0.41,0.67-0.92,1.1-1.55c0.45-0.66,0.9-1.39,1.35-2.17c0.47-0.82,0.92-1.62,1.32-2.39c0.41-0.77,0.74-1.44,1.01-2.02
		c0.33-0.71,0.38-0.88,0.39-0.92c0.01-0.35-0.12-0.88-0.27-1.39c-0.55-1.84-1.15-3.93-1.88-6.58c-0.71-2.6-1.36-4.85-1.98-6.85
		c-0.69-2.25-1.4-4.26-2.09-5.99c-0.69-1.72-1.43-3.15-2.21-4.23l-0.27-0.38l0.36-0.3c1.58-1.29,2.37-1.94,3.95-3.21
		c0.59-0.38,0.99-0.35,1.25-0.21c0.81-1.1,1.46-1.98,2.47-3.33l0.33-0.43l0.41,0.36c1.21,1.07,2.44,2.34,3.66,3.77
		c1.31,1.53,2.66,3.35,4.03,5.42c1.26,1.91,2.58,4.07,4.02,6.62c1.44,2.53,2.73,4.99,3.7,6.86c0.74,1.42,1.43,2.77,2.07,4.01
		l0.99,1.92c0.27,0.53,0.53,1.02,0.76,1.47c-0.19-0.97-0.4-2.01-0.61-3.12c-0.44-2.28-0.89-4.71-1.35-7.23
		c-0.47-2.52-0.93-5.09-1.38-7.66c-0.45-2.57-0.86-4.98-1.21-7.2c-0.08-0.46-0.22-1.02-0.42-1.66c-0.21-0.68-0.42-1.42-0.63-2.21
		c-0.21-0.8-0.37-1.66-0.48-2.57c-0.11-0.93-0.07-1.91,0.12-2.91l0.03-0.15l0.11-0.11c1.25-1.26,1.87-1.88,3.12-3.07l0.15-0.1
		c0.21-0.09,0.44-0.09,0.63,0.01c0.24,0.12,0.41,0.35,0.52,0.73c0.11,0.38,0.18,0.71,0.23,0.96c0.33,2.32,0.73,5.01,1.2,8.08
		c0.1,0.65,0.2,1.32,0.31,1.99c0.33-0.48,0.68-0.96,1.05-1.46c0.56-0.74,1.11-1.45,1.63-2.12c0.52-0.66,1-1.29,1.43-1.86
		c0.39-0.52,0.67-0.96,0.85-1.31c0-0.08,0-0.28-0.05-0.73c-0.07-0.73-0.04-0.99,0.04-1.16l0.08-0.13c1.12-1.32,1.68-1.97,2.83-3.21
		l0.1-0.11l0.15-0.04c0.32-0.07,0.62,0.07,0.81,0.38c0.09,0.15,0.16,0.33,0.22,0.52c0.02,0.06,0.04,0.12,0.06,0.17
		c0.43-0.13,0.86-0.35,1.29-0.67c0.23-0.17,0.46-0.33,0.69-0.5c0.33-0.24,0.67-0.48,1.01-0.74c0.57-0.44,1.16-0.86,1.74-1.23
		c0.62-0.4,1.27-0.64,1.95-0.72l0.6-0.07c0.41-0.05,0.83-0.02,1.28,0.08c0.48,0.11,0.92,0.35,1.3,0.72
		c0.42,0.41,0.63,1.02,0.62,1.88c0,0.24-0.13,0.48-0.57,0.98c-0.31,0.36-0.64,0.73-0.99,1.11c-0.42,0.44-0.9,0.92-1.43,1.43
		l-0.12,0.12l-0.19,0.04c0,0-0.01,0-0.01,0c2.17,5.73,4.24,12.68,5.81,18.16c1.65,5.73,3.18,11.67,4.65,17.41l0.11,0.41
		c0.52-6.15,0.91-12.97,1.22-21.17c0.26-6.8,0.49-14.14,0.72-22.43c-0.02-0.74-0.03-1.2-0.05-1.4c-0.02-0.24-0.01-0.59,0.04-1.05
		l0.03-0.27l0.24-0.13c1.17-0.62,1.76-0.91,2.93-1.48l0.19-0.05l0.21-0.01l0.25,0.18c0.24,0.22,0.39,0.61,0.44,1.98
		c0.04,1.12,0.03,2.68-0.04,5.02c0.1-0.17,0.2-0.36,0.31-0.52c0.98-1.44,2.11-2.47,3.47-3.14c1.27-0.62,2.6-0.95,3.96-0.98
		c0.42,0,0.96,0.18,1.58,0.57c0.59,0.37,1.16,0.88,1.7,1.51c0.55,0.64,1.03,1.4,1.43,2.24c0.04,0.09,0.08,0.19,0.12,0.29
		c0.49-0.31,1.04-0.63,1.67-0.93l-0.18-1.15c-0.08-0.52-0.15-0.92-0.2-1.27l-0.06-0.37l0.33-0.16c1.05-0.52,1.57-0.77,2.63-1.24
		l0.17-0.08l0.84,0.24l0.1,0.19c0.15,0.28,0.29,0.64,0.42,1.07c0.08,0.28,0.17,0.59,0.26,0.95c0.87-0.37,1.73-0.7,2.56-1.01
		c0.93-0.34,1.87-0.62,2.79-0.85c0.89-0.22,1.78-0.38,2.65-0.46c0.86-0.09,1.76-0.11,2.7-0.06c0.66,0.03,1.34,0.14,2.02,0.32
		c0.72,0.19,1.36,0.5,1.92,0.91c0.58,0.43,1.06,1.01,1.41,1.72c0.36,0.72,0.55,1.62,0.58,2.74c0.03,1.26-0.15,2.68-0.53,4.21
		c-0.38,1.51-0.88,3.1-1.48,4.73c-0.63,1.69-1.31,3.35-2.01,4.94l-0.32,0.71c-0.62,1.39-1.21,2.73-1.78,4
		c-0.05,0.11-0.1,0.23-0.15,0.34c0.74-1.05,1.45-2.11,2.12-3.16c0.65-1.01,1.11-1.96,1.37-2.83c0.22-0.72,0.42-1.26,0.62-1.66
		c0.21-0.42,0.43-0.74,0.68-0.97c0.23-0.22,0.51-0.36,0.8-0.43c0.05-1.5,0.19-2.9,0.41-4.16c0.32-1.8,0.79-3.28,1.43-4.53
		c0.64-1.23,1.45-2.19,2.42-2.86c1.04-0.73,2.21-1.04,3.38-0.92c0.47,0.05,1.02,0.22,1.68,0.52c0.58,0.26,1.17,0.6,1.75,0.99
		c0.57,0.4,1.12,0.83,1.64,1.3c0.12,0.11,0.24,0.22,0.35,0.33c-0.15-1-0.37-2-0.66-2.97c-0.44-1.48-0.8-2.79-1.08-3.91l-0.06-0.23
		l0.15-0.19c0.92-1.19,1.4-1.7,2.36-2.48l0.6-0.49l0.2,0.75c0.56,2.14,1.28,5.37,2.27,10.18c0.8,3.92,1.63,8.53,2.45,13.72
		c0.01-0.89,0.03-1.73,0.09-2.47l0.03-0.14c0.28-0.74,0.77-0.96,1.12-1.01c0.36-0.05,0.77-0.08,1.15-0.08c0.33,0,0.68-0.03,1.01-0.1
		c0.06-0.01,0.24-0.05,0.42-0.4c-0.09-0.84-0.24-1.87-0.45-3.07c-0.23-1.31-0.32-2.49-0.25-3.52c0.05-0.78,0.26-1.32,0.64-1.65
		c0.36-0.31,0.8-0.48,1.3-0.5c0.46-0.02,0.94,0.07,1.48,0.24c0.5,0.16,0.99,0.36,1.46,0.58c2.94,1.39,5.49,3.53,7.59,6.38
		c2.04,2.76,3.68,5.96,4.89,9.51c1.04,3.07,1.79,6.38,2.26,9.84c0.21-0.23,0.44-0.44,0.69-0.64l-0.1-1.6l0.55,0.02
		c0.33,0.01,0.65,0.04,0.95,0.09c0.26,0.04,0.52,0.11,0.79,0.21c1.07-0.43,2.18-0.64,3.33-0.62c1.17,0.02,2.27,0.33,3.27,0.93
		c1.36,0.81,2.56,1.81,3.57,2.97c0.96,1.11,1.75,2.29,2.33,3.5c0.42,0.89,0.75,1.79,0.97,2.71c0.02-0.27,0.04-0.54,0.05-0.81
		c-0.01,0.03-0.03-0.07-0.07-0.22l-0.16-0.62c-0.06-0.24-0.12-0.49-0.17-0.76c-0.06-0.36-0.07-0.63-0.03-0.84
		c0.08-0.37,0.4-0.6,0.8-0.6c0.02,0,0.03,0,0.05,0c0.24,0.01,0.49,0.07,0.77,0.17c0.25,0.09,0.52,0.21,0.78,0.36
		c0.25,0.14,0.45,0.26,0.59,0.35l0.69,0.45l0.05,0.17c0.38,1.23,0.75,2.5,1.12,3.78l1.03,3.56c0.32,1.09,0.6,2.05,0.86,2.9
		c0.19,0.62,0.35,1.14,0.49,1.54c0.4-0.01,0.77,0.06,1.1,0.22c0.47,0.23,0.8,0.69,0.98,1.34l0.06,0.21l-0.13,0.26
		c-0.1,0.16-0.26,0.26-0.49,0.31c-0.16,0.04-0.34,0.06-0.54,0.07c-0.02,0-0.05,0-0.07,0c0.33,1.28,0.67,2.55,1.02,3.81
		c0.39,1.39,0.89,2.74,1.5,4.01l0.12,0.18l-0.02,0.33c-0.02,0.1-0.07,0.19-0.14,0.28l-0.26,0.33l-0.23,0.01
		c-0.86,0.02-1.29,0.04-2.15,0.09l-0.08,0l-0.08-0.02c-0.17-0.05-0.3-0.14-0.39-0.26c-0.29-0.55-0.55-1.19-0.79-1.93
		c-0.24-0.74-0.47-1.53-0.69-2.34c-0.22-0.82-0.44-1.67-0.66-2.54c-0.19-0.74-0.38-1.44-0.58-2.08c-0.04,0-0.09,0-0.14-0.01
		c-0.26-0.01-0.54-0.02-0.85-0.01c-0.32,0.01-0.63,0.02-0.93,0.03c-0.08,0-0.16,0.01-0.24,0.01c-0.03,0.45-0.07,0.94-0.12,1.46
		l-0.19,1.99c-0.06,0.63-0.11,1.17-0.14,1.63c-0.03,0.35-0.04,0.58-0.04,0.67l0.12,0.47l-0.48,0.09c-0.94,0.26-1.41,0.39-2.34,0.69
		l-0.12,0.04l-0.13-0.03c-0.17-0.04-0.58-0.19-0.6-0.86c0.28-2.35,0.42-3.67,0.65-6.06c-0.44,0.02-0.8,0.03-1.35,0.07l-0.06,0
		l-0.06-0.01c-0.54-0.09-0.82-0.14-1.36-0.22l-0.15-0.02c-0.3,0.3-0.6,0.6-0.92,0.9c-0.92,0.85-1.9,1.62-2.89,2.27
		c-1.01,0.66-2.04,1.18-3.06,1.55c-0.83,0.3-1.64,0.45-2.4,0.45c-0.22,0-0.44-0.01-0.66-0.04L281,201.2l-0.12-1.88l0.35-0.13
		c0.6-0.23,1.24-0.45,1.9-0.66c0.05-0.02,0.1-0.03,0.15-0.05c-0.41-0.08-0.6-0.51-0.77-1.17c-0.14-0.55-0.29-1.25-0.44-2.15
		c-0.16-0.9-0.32-1.96-0.49-3.2c-0.17-1.23-0.34-2.54-0.5-3.91c-0.17-1.38-0.33-2.77-0.48-4.17c-0.08-0.75-0.16-1.48-0.23-2.17
		c-0.01,0.02-0.01,0.03-0.02,0.05l-0.23,0.47l-0.44-0.24c0.15,2.67,0.16,5.3-0.01,7.85c-0.25,3.77-1.18,6.47-2.84,8.24
		c-1.48,1.57-3.48,2.34-6.09,2.34c-0.26,0-0.52-0.01-0.79-0.02c-1.83-0.1-3.35-0.7-4.67-1.84c-1.37-1.18-2.5-2.74-3.48-4.77
		c-0.63-1.31-1.21-2.82-1.73-4.48c-0.12,0.67-0.25,1.33-0.42,1.97c-0.54,2.05-1.25,3.77-2.17,5.25c-0.9,1.45-1.92,2.57-3.13,3.42
		c-1.17,0.83-2.43,1.27-3.72,1.3c-0.06,0-0.12,0-0.18,0c-1.3,0-2.53-0.34-3.65-1c-1.24-0.74-2.31-1.75-3.25-3.09
		c-0.96-1.36-1.77-2.97-2.48-4.9c0.15,1.81,0.31,3.5,0.46,5.03c0.26,2.55,0.54,4.44,0.85,5.78l0.08,0.35l-0.31,0.19
		c-1.28,0.79-1.89,1.14-3.12,1.78l-0.11,0.06l-0.12,0c0,0,0,0,0,0c-0.71,0-0.98-0.86-1.18-1.8c-0.22-1.06-0.42-2.49-0.63-4.5
		c-0.21-2.01-0.43-4.48-0.67-7.56c-0.24-3.06-0.46-6.19-0.66-9.33c-0.2-3.15-0.38-6.07-0.53-8.64c-0.08-1.39-0.15-2.56-0.19-3.49
		c-0.05,0.08-0.11,0.17-0.17,0.25c-0.49,0.75-1.05,1.56-1.67,2.43c-0.62,0.87-1.25,1.76-1.9,2.69l-1.79,2.55
		c-0.53,0.76-0.97,1.43-1.3,2.01c-0.43,0.74-0.43,0.96-0.43,0.97c0,0.12,0.04,0.5,0.23,1.66c0.15,0.91,0.33,1.98,0.54,3.19
		c0.21,1.21,0.45,2.49,0.71,3.8c0.26,1.32,0.5,2.53,0.7,3.64c0.2,1.11,0.37,2.05,0.51,2.84c0.08,0.45,0.13,0.81,0.17,1.09h0.11
		l0.03,0.69l-0.04,0.05l0.01,0.29l-0.25,0.02c-1.01,1.04-1.53,1.55-2.54,2.49l-0.14,0.13l-0.19,0c0,0,0,0,0,0
		c-0.56,0-0.85-0.62-1.08-1.28c-0.23-0.68-0.47-1.55-0.71-2.57c-0.25-1.09-0.51-2.31-0.76-3.63c-0.26-1.36-0.51-2.68-0.74-3.93
		c-0.16-0.85-0.31-1.61-0.44-2.29c-0.79,1.41-1.58,2.77-2.38,4.05c-1.27,2.03-2.66,3.82-4.13,5.33c-1.4,1.44-2.96,2.61-4.64,3.49
		c-1.6,0.84-3.35,1.29-5.19,1.33c-0.03,0-0.07,0-0.1,0c-1.39,0-2.45-0.67-3.17-2c-0.71-1.32-1.08-3.01-1.13-5.18
		c-0.04-2.02,0.12-3.87,0.49-5.52c0.37-1.66,0.9-3.23,1.57-4.65c0.68-1.45,1.47-2.85,2.37-4.16c0.49-0.73,1.01-1.47,1.54-2.22
		c-0.73,0.22-1.49,0.28-2.27,0.17c-0.83-0.11-1.66-0.48-2.45-1.08c-0.79-0.6-1.51-1.51-2.14-2.7c-0.19-0.36-0.37-0.77-0.54-1.19
		c-0.15,2.92-0.29,5.54-0.43,7.92c-0.24,4.06-0.46,7.42-0.67,10.27c-0.21,2.74-0.41,5.05-0.62,6.88c-0.18,1.54-0.33,2.62-0.45,3.12
		l-0.06,0.24l-0.23,0.1c-1.17,0.52-1.76,0.77-2.92,1.25l-0.18,0.04c-0.01,0-0.01,0-0.02,0c-0.49,0-0.7-0.53-0.77-0.7
		c-0.12-0.28-0.22-0.59-0.31-0.94c-0.09-0.33-0.16-0.66-0.22-0.98c-0.05-0.25-0.08-0.43-0.09-0.53l-0.62-2.46
		c-0.25-0.98-0.51-1.99-0.77-3.02c-0.7,1.57-1.08,2.36-1.77,3.76l-0.14,0.29l-0.33-0.01c-2.22-0.09-4.25,0.14-6.02,0.67
		c-1.65,0.5-3.22,1.13-4.68,1.87c-1.33,0.68-2.53,1.38-3.56,2.06c-0.94,0.63-1.86,1.19-2.73,1.67l-0.12,0.06l-0.32-0.01
		c-0.13,0-0.33-0.05-0.53-0.18c-0.16,0.11-0.32,0.23-0.49,0.36l-0.13,0.1l-0.17,0c-0.38-0.01-0.55-0.35-0.83-0.95
		c-0.21-0.45-0.44-0.98-0.69-1.6c-0.25-0.62-0.49-1.22-0.72-1.8c-0.22-0.56-0.35-0.91-0.41-1.03l-0.08-0.16
		c-0.37-0.73-0.89-1.77-1.56-3.16l-0.36-0.74c-0.64-1.32-1.35-2.78-2.14-4.37l-0.82-1.66c-0.68-1.38-1.38-2.81-2.1-4.24
		c-1.05-2.1-1.99-3.92-2.86-5.55c-0.7-1.3-1.38-2.54-2.04-3.7c0.02,0.09,0.04,0.19,0.06,0.28c0.26,1.21,0.52,2.4,0.77,3.55
		c0.25,1.16,0.48,2.23,0.69,3.21c0.2,0.97,0.36,1.69,0.46,2.15l1.62,7.13c0.34,1.48,0.64,2.79,0.91,3.93
		c0.35,1.48,0.41,1.91,0.4,2.13l-0.01,0.21l-0.16,0.14c-1.2,1.08-1.83,1.6-3.03,2.56l-0.13,0.1l-0.17,0c-0.28,0-0.73-0.1-0.94-0.88
		l-0.07-0.26l-0.01,0.05l-0.17,0.12c-1.22,0.84-1.82,1.23-3.06,2l-0.14,0.09l-0.17-0.02c-0.63-0.06-0.99-0.83-1.22-1.5
		c-0.28-0.77-0.55-1.64-0.8-2.58c-0.25-0.93-0.48-1.81-0.71-2.62c-0.05-0.18-0.09-0.32-0.13-0.44c-0.6,0.83-1.27,1.81-2.05,3.04
		c-0.83,1.3-1.68,2.54-2.53,3.68c-0.75,1.01-1.49,1.91-2.22,2.67c-0.74,0.77-1.33,1.15-1.85,1.18c-0.01,0-0.03,0-0.04,0
		c-0.18,0-0.41-0.06-0.78-0.19c-0.39-0.14-0.62-0.25-0.75-0.37l-0.13-0.16c-0.94-1.93-1.82-4.24-2.61-6.87
		c-0.74-2.47-1.46-5.21-2.14-8.15c-0.63-2.73-1.21-5.56-1.73-8.41c-0.48-2.64-0.94-5.24-1.35-7.73l-0.03-0.18L133.84,172.96z
		 M281.32,203.81c-0.07-0.45-0.1-0.82-0.1-1.14c0-0.31,0.09-0.55,0.25-0.72c0.1-0.1,0.31-0.21,0.56-0.21l0.12,0l2.12,1.15l0.04,0.24
		c0.06,0.36,0.08,0.8,0.06,1.35c-0.02,0.55-0.06,1.11-0.14,1.67c-0.08,0.58-0.19,1.11-0.34,1.56c-0.22,0.64-0.56,0.97-1.01,1
		c-0.03,0-0.07,0-0.1,0c-0.63,0-1.3-0.3-2.01-0.88c-0.63-0.53-1.26-1.13-1.88-1.8c-0.57-0.62-1.07-1.2-1.49-1.72
		c-0.27-0.34-0.43-0.5-0.5-0.57c-0.29,0.02-0.34,0.15-0.38,0.25c-0.14,0.37-0.22,0.8-0.26,1.31c-0.04,0.55-0.07,1.08-0.1,1.57
		c-0.06,1.1-0.69,1.22-0.95,1.22l-0.23,0l-0.15-0.18c-0.6-0.7-0.9-1.05-1.5-1.73l-0.1-0.12l-0.02-0.16
		c-0.06-0.54-0.01-1.13,0.15-1.75c0.15-0.6,0.38-1.15,0.66-1.63c0.29-0.48,0.62-0.86,1-1.17c0.42-0.34,0.87-0.5,1.35-0.47l0.57,0.03
		l0.11,0.06c0.51,0.31,0.98,0.66,1.4,1.05c0.41,0.38,0.81,0.78,1.21,1.18c0.38,0.39,0.78,0.79,1.18,1.18
		c0.2,0.19,0.4,0.37,0.61,0.54C281.42,204.57,281.38,204.19,281.32,203.81z M117.24,196.66c0.12-0.3,0.35-0.56,0.66-0.77
		c0.24-0.16,0.5-0.33,0.79-0.5c0.26-0.16,0.52-0.33,0.75-0.5c0.11-0.08,0.2-0.18,0.27-0.28c-0.11-0.21-0.27-0.46-0.46-0.73
		c-0.32-0.45-0.51-0.95-0.58-1.47c-0.05-0.4,0.04-0.79,0.27-1.14c0.19-0.3,0.44-0.58,0.74-0.83c0.29-0.25,0.62-0.49,0.99-0.71
		c0.36-0.22,0.71-0.42,1.05-0.59c2.32-1.19,4.29-1.68,6.03-1.5c1.8,0.19,3.38,0.98,4.68,2.33c1.23,1.27,2.27,2.99,3.09,5.12
		c0.75,1.94,1.3,4.1,1.6,6.23c0.31,2.22-0.07,3.88-1.16,5.05c-1.01,1.09-2.65,1.74-5.15,2.07c-0.54,0.07-1.06,0.11-1.56,0.11
		c-0.81,0-1.58-0.09-2.32-0.28c-1.19-0.3-2.29-0.76-3.27-1.38c-0.98-0.62-1.87-1.36-2.64-2.21c-0.78-0.85-1.44-1.72-1.98-2.61
		c-0.56-0.92-0.98-1.8-1.29-2.69c-0.33-0.92-0.5-1.74-0.54-2.5l-0.01-0.11L117.24,196.66z M312.39,225.62
		c-1.16,1.91-3.11,3.81-5.96,5.79c-1.75,1.22-3.29,1.95-4.69,2.23c-0.54,0.1-1.06,0.16-1.55,0.16c-0.8,0-1.55-0.14-2.24-0.41
		c0.91,0.83,1.89,1.51,2.93,2l0.33,0.07l0.14,0.43c0.02,0.11,0.02,0.22-0.01,0.36l-0.08,0.48l-0.09,0.1
		c-1.14,1.34-1.71,2.02-2.85,3.4l-0.07,0.07c-0.08,0.06-0.29,0.22-0.55,0.18c-0.82-0.29-1.56-0.76-2.3-1.42
		c-0.76-0.68-1.52-1.49-2.25-2.41c-0.73-0.92-1.47-1.94-2.21-3.04c-0.6-0.9-1.18-1.75-1.72-2.53c-0.06,0.06-0.13,0.13-0.21,0.22
		c-0.34,0.36-0.72,0.77-1.12,1.23l-1.2,1.39c-0.3,0.34-0.54,0.62-0.73,0.84c0.19,0.96,0.4,2.04,0.61,3.22
		c0.23,1.27,0.45,2.45,0.67,3.55c0.22,1.09,0.41,2,0.58,2.76c0.2,0.89,0.28,1.07,0.29,1.09l0.22,0.28l-0.23,0.25l-0.74,1.12
		c-0.75,1.12-1.31,1.96-2.22,3.33l-0.11,0.12c-0.17,0.13-0.34,0.17-0.47,0.17c-0.08,0-0.15-0.01-0.19-0.03
		c-0.26-0.08-0.45-0.29-0.57-0.65c-0.72-3.86-1.11-6.31-1.77-10.81c-0.61,0.67-1.08,1.19-1.84,2.03l-0.07,0.07
		c-0.06,0.05-0.11,0.08-0.16,0.12c-0.36,1.17-0.73,2.32-1.12,3.44c-0.61,1.73-1.27,3.4-1.96,4.95c-0.6,1.35-1.25,2.59-1.92,3.69
		c0.11,0.04,0.23,0.08,0.35,0.13c0.36,0.14,0.72,0.33,1.06,0.57c0.34,0.24,0.64,0.52,0.89,0.84c0.28,0.36,0.45,0.82,0.51,1.37
		c0.1,0.94-0.02,1.86-0.35,2.83c-0.32,0.92-0.72,1.77-1.24,2.6c-0.5,0.79-1.07,1.53-1.69,2.2c-0.61,0.65-1.18,1.15-1.69,1.48
		c-1.15,0.75-2.03,1.15-2.7,1.21c-0.1,0.01-0.19,0.01-0.28,0.01c-0.61,0-1.11-0.2-1.48-0.61l-0.2-0.22l0.09-0.28
		c0.52-1.55,0.78-2.39,1.27-4.12l0.21-0.73l0.59,0.47c0.16,0.13,0.37,0.24,0.62,0.34c0.26,0.1,0.55,0.17,0.87,0.2
		c0.31,0.03,0.65,0,1.01-0.08c0.34-0.07,0.7-0.24,1.06-0.48c0.21-0.14,0.42-0.37,0.61-0.68c0.18-0.28,0.24-0.53,0.22-0.79
		c-0.03-0.32-0.17-0.45-0.29-0.52c-0.25-0.16-0.55-0.27-0.91-0.33c-0.41-0.07-0.81-0.12-1.21-0.14c-0.41-0.02-0.77-0.04-1.07-0.04
		l-0.33,0l-0.13-0.31c-0.02-0.05-0.04-0.1-0.06-0.15c-0.03,0.02-0.06,0.04-0.09,0.06v0c-0.57,0.33-1.12,0.54-1.65,0.66
		c0,0.1,0,0.2-0.02,0.32l-0.1,0.62l-0.1,0.11c-1.16,1.31-1.74,1.97-2.96,3.25l-0.14,0.1c-0.36,0.18-0.61,0.04-0.69-0.04
		c-0.73-0.81-1.41-1.88-2.08-3.24c-0.7-1.43-1.4-3.1-2.08-4.95c-0.67-1.82-1.36-3.84-2.06-6.02c-0.6-1.86-1.17-3.6-1.71-5.19
		c-0.03,0.03-0.06,0.06-0.09,0.09c-0.35,0.34-0.74,0.74-1.16,1.19c-0.43,0.47-0.85,0.91-1.26,1.34c-0.31,0.33-0.57,0.59-0.77,0.78
		c0.17,1.55,0.34,3.28,0.52,5.15c0.18,1.97,0.36,3.79,0.54,5.46c0.17,1.66,0.33,3.04,0.47,4.17c0.18,1.43,0.25,1.71,0.27,1.76
		l0.09,0.27l-0.18,0.23c-1.24,1.47-1.87,2.18-3.18,3.5l-0.11,0.11l-0.15,0.03c-0.04,0.01-0.09,0.01-0.15,0.01
		c-0.28,0-0.65-0.16-0.85-0.91c-0.03,0.07-0.05,0.13-0.08,0.2c-0.3,0.64-0.62,1.27-0.96,1.85c-0.3,0.54-0.62,1.03-1.03,1.59
		c-0.34,0.47-0.61,0.78-0.83,0.92l-0.35,0.24l-0.29-0.31c-0.14-0.15-0.24-0.35-0.32-0.62c-0.05-0.2-0.1-0.43-0.14-0.67
		c-0.04-0.26-0.08-0.55-0.12-0.87c-1.27-4.91-2.62-11.88-3.87-18.67c-1.1-5.94-2.14-12.23-3.11-18.33
		c-0.02,0.59-0.03,1.26-0.05,2.01c-0.02,1.16-0.04,2.45-0.06,3.86c-0.01,0.86-0.01,1.73-0.02,2.61l-0.01,1.68
		c-0.01,1.55-0.03,3.18-0.04,4.86c-0.02,1.97-0.04,4.02-0.05,6.1c-0.08,0.44-0.24,0.95-0.47,1.6s-0.5,1.3-0.8,1.93
		c-0.3,0.64-0.62,1.21-0.95,1.71c-0.43,0.66-0.78,0.94-1.16,0.95l-0.25,0.01l-0.15-0.19c-0.22-0.28-0.52-0.78-0.92-1.52
		c-0.41-0.78-0.85-1.68-1.31-2.66c-0.48-1.04-0.99-2.18-1.51-3.4c-0.52-1.21-1.03-2.39-1.52-3.5c-0.49-1.11-0.93-2.09-1.33-2.94
		c-0.01-0.02-0.02-0.04-0.03-0.06c0.01,0.29,0.03,0.59,0.06,0.92c0.11,1.26,0.27,2.67,0.5,4.2c0.23,1.56,0.51,3.17,0.82,4.77
		c0.32,1.61,0.64,3.14,0.97,4.53c0.32,1.37,0.65,2.62,0.96,3.72c0.29,1.01,0.56,1.83,0.81,2.43l0.09,0.22l-0.11,0.21
		c-1.18,2.24-1.79,3.25-2.94,4.94l-0.18,0.27l-0.32-0.06c-0.79-0.15-1.38-0.53-1.75-1.12c-0.35-0.55-0.57-1.22-0.68-2.04
		c0-0.03,0-0.06-0.01-0.08c-0.59,0.31-1.15,0.59-1.93,0.98l-0.1,0.05l-0.12,0c0,0,0,0-0.01,0c-0.3,0-0.47-0.14-0.56-0.25
		c-0.71-1.14-1.39-2.57-2.03-4.29c-0.68-1.81-1.35-3.86-2-6.11c-0.63-2.16-1.26-4.48-1.94-7.1c-0.65-2.49-1.18-4.46-1.65-6.13
		c-0.06,0.04-0.12,0.08-0.19,0.13c-0.41,0.28-0.87,0.61-1.36,1c-0.51,0.4-1,0.78-1.48,1.15c-0.35,0.27-0.65,0.49-0.88,0.65
		c0.09,1.61,0.18,3.41,0.26,5.35c0.08,2.05,0.17,3.95,0.26,5.7c0.09,1.74,0.17,3.18,0.25,4.37c0.1,1.51,0.16,1.81,0.18,1.87
		l0.1,0.33l-0.27,0.22c-1.53,1.17-2.31,1.73-3.81,2.74l-0.13,0.09l-0.16,0c-0.35-0.01-0.8-0.21-0.94-1.18
		c-0.21-5.55-0.31-9.37-0.48-16.38c-0.33,0.2-0.63,0.38-0.93,0.55c0,0.14,0.01,0.28,0.01,0.42c0.1,3.44,0.25,6.58,0.44,9.31
		c0.19,2.68,0.45,4.76,0.79,6.36l0.07,0.34l-0.29,0.19c-1.37,0.88-2.07,1.31-3.42,2.07l-0.12,0.07l-0.14,0
		c-0.75-0.02-1.03-1.04-1.22-2.13c-0.22-1.26-0.4-2.9-0.54-5.01c-0.15-2.18-0.27-4.79-0.36-7.74c-0.04-1.38-0.07-2.78-0.1-4.19
		l-0.03-0.11l0.03-0.03c-0.03-1.58-0.05-3.17-0.06-4.76c-0.02-3.02-0.04-5.8-0.04-8.24c0-1.29,0-2.38,0.01-3.26
		c-0.07,0.09-0.14,0.19-0.21,0.28c-0.55,0.72-1.18,1.5-1.87,2.34l-4.15,4.99c-0.6,0.72-1.1,1.36-1.48,1.9
		c-0.47,0.67-0.51,0.88-0.51,0.9c0,0.11,0.01,0.47,0.13,1.55c0.09,0.86,0.21,1.88,0.35,3.04c0.14,1.16,0.3,2.39,0.49,3.67
		c0.19,1.29,0.36,2.48,0.5,3.58c0.14,1.1,0.26,2.05,0.36,2.86c0.06,0.46,0.09,0.83,0.12,1.11l0.12,0l-0.03,0.72l-0.15,0.21
		c-1.2,1.12-1.78,1.63-2.95,2.63l-0.15,0.13l-0.19-0.01c-0.58-0.02-0.84-0.68-1.04-1.38c-0.2-0.72-0.4-1.62-0.59-2.67
		c-0.2-1.12-0.39-2.34-0.56-3.64c-0.18-1.34-0.35-2.63-0.51-3.83c-0.16-1.2-0.3-2.23-0.43-3.06c-0.05-0.33-0.09-0.55-0.12-0.71
		c-0.08,0.06-0.18,0.14-0.29,0.26c-0.45,0.48-0.88,0.7-1.33,0.7l-0.37-0.01l-0.1-0.36c-0.34-1.2-0.51-1.81-0.84-3.03l-0.05-0.18
		l0.08-0.17c0.84-1.75,1.27-2.66,2.1-4.43c-0.12-2.36-0.3-4.61-0.51-6.67c-0.2-1.86-0.41-3.66-0.64-5.4
		c-0.23,0.11-0.46,0.23-0.71,0.33c-0.34,0.13-0.67,0.28-0.99,0.44c-0.2,0.1-0.37,0.22-0.51,0.34c0.03,1.7,0.1,3.3,0.21,4.73
		c0.11,1.52,0.21,3.01,0.29,4.44c0.09,1.44,0.16,2.88,0.2,4.33c0.05,1.46,0.04,2.96-0.02,4.46c-0.14,3.43-0.53,6.07-1.19,8.06
		c-0.65,1.97-1.43,3.44-2.39,4.51c-0.92,1.02-1.94,1.72-3.03,2.08c-0.9,0.3-1.77,0.45-2.58,0.45c-0.12,0-0.24,0-0.35-0.01
		c-1.8-0.1-3.37-0.99-4.8-2.71c-1.33-1.6-2.45-3.74-3.33-6.36c-0.2-0.6-0.39-1.23-0.56-1.87c-0.44,1.74-1.04,3.08-1.82,4.02
		c-0.68,0.83-1.74,1.6-3.3,1.6c-0.9,0-1.97-0.26-3.23-0.92c-1.53-0.8-2.88-2.11-4.02-3.91c-1.09-1.72-2.02-3.74-2.76-5.99
		c-0.48-1.46-0.89-3.02-1.24-4.64c-0.05,2.31-0.06,4.51-0.05,6.52c0.02,2.25,0.11,4.09,0.28,5.61l0.06,0.55l-0.55,0.01
		c-0.15,0-0.29,0-0.42,0c-0.83,0-1.38-0.04-2.34-0.14l-0.14-0.02l-0.11-0.09c-0.26-0.2-0.52-0.61-0.66-2.23
		c-0.1-1.14-0.15-2.55-0.17-4.31c-0.02-1.74,0-3.76,0.05-6.01c0.04-2.22,0.11-4.45,0.2-6.63c0.09-2.16,0.17-4.11,0.25-5.83
		c0.04-0.92,0.08-1.68,0.12-2.28c-0.03,0.02-0.07,0.05-0.1,0.07c-0.49,0.34-1.03,0.67-1.6,0.98c-0.58,0.32-1.18,0.63-1.8,0.92
		c-0.62,0.29-1.19,0.54-1.71,0.75c-0.49,0.2-0.9,0.38-1.22,0.54c-0.13,0.07-0.21,0.12-0.25,0.15c0,0.12,0.01,0.37,0.06,0.9
		c0.05,0.59,0.12,1.29,0.19,2.1c0.08,0.81,0.17,1.69,0.28,2.63c0.11,0.95,0.21,1.84,0.29,2.67c0.08,0.83,0.14,1.55,0.19,2.17
		c0.04,0.46,0.05,0.76,0.05,0.96l0.08,0.06l-0.04,0.69l-0.44,0.08c-0.03,0-0.05,0-0.08,0.01l-0.07,0.03l-0.03-0.02
		c-0.85,0.06-1.36,0.07-2.29,0.04l-0.17-0.01l-0.13-0.11c-0.25-0.21-0.43-0.62-0.59-1.36c-0.13-0.61-0.26-1.35-0.38-2.18
		c-0.12-0.84-0.23-1.75-0.34-2.72c-0.11-0.97-0.21-1.87-0.3-2.7c-0.09-0.83-0.18-1.53-0.27-2.1c-0.05-0.35-0.09-0.54-0.12-0.64
		c-0.11-0.04-0.22-0.06-0.36-0.04c-0.41,0.05-0.8-0.04-1.14-0.28l-0.15-0.1l-0.05-0.18c-0.25-0.88-0.37-1.32-0.62-2.19l-0.1-0.33
		l0.28-0.21c0.69-0.52,1.05-0.81,1.69-1.37c-0.05-1.34-0.13-2.64-0.26-3.86c-0.13-1.24-0.29-2.46-0.46-3.65
		c-0.33,0.4-0.68,0.78-1.06,1.12c-0.91,0.84-1.89,1.53-2.92,2.05c-0.95,0.48-1.91,0.88-2.86,1.19c-0.87,0.28-1.6,0.48-2.19,0.63
		c-0.26,0.07-0.41,0.12-0.5,0.16c0.01,0.27,0.05,0.81,0.21,1.71c0.17,0.96,0.36,1.99,0.56,3.09c0.21,1.11,0.38,2.17,0.54,3.18
		c0.16,1.05,0.22,1.79,0.18,2.24l-0.02,0.28l-0.25,0.13c-0.08,0.04-0.16,0.06-0.24,0.06c-0.17,0-0.33-0.08-0.49-0.15
		c-0.19-0.09-0.45-0.23-0.78-0.41c-0.32-0.18-0.68-0.38-1.08-0.6c-0.41-0.23-0.83-0.49-1.29-0.78l-0.16-0.1l-0.05-0.19
		c-0.16-0.59-0.31-1.28-0.45-2.08c-0.14-0.79-0.28-1.62-0.43-2.47c-0.14-0.85-0.29-1.67-0.44-2.46c-0.12-0.65-0.26-1.23-0.4-1.72
		c-0.98-0.31-1.56-0.5-2.64-0.86l-0.14-0.05l-0.09-0.11c-0.56-0.69-0.83-1.03-1.39-1.69l-0.59-0.7l0.91-0.12
		c0.4-0.05,0.83-0.03,1.27,0.05c0.38,0.07,0.74,0.14,1.08,0.18c0.32,0.04,0.62,0.06,0.87,0.05c0.06,0,0.1-0.01,0.13-0.02
		c-0.05-0.57-0.12-1.27-0.2-2.11c-0.09-0.96-0.2-1.99-0.32-3.06c-0.12-1.07-0.23-2.14-0.34-3.21c-0.09-0.93-0.17-1.78-0.24-2.57
		c-0.23-0.06-0.46-0.12-0.68-0.19c-0.34-0.1-0.67-0.21-0.99-0.33l-0.11-0.04l-0.08-0.08c-0.38-0.4-0.57-0.59-0.95-0.98l-0.9-0.91
		l1.28,0.06c0.56,0.03,1.28,0.09,2.28,0.2l-0.1-1.3l0.58,0.04c1.02,0.07,1.53,0.09,2.53,0.12l0.19,0.04l0.55,0.25l0.08,0.14
		c0.11,0.2,0.21,0.43,0.29,0.7c0.04,0.15,0.08,0.31,0.13,0.49c0.91,0.07,1.75,0.13,2.52,0.17c0.88,0.05,1.71,0.11,2.51,0.17
		c0.84,0.07,1.6,0.15,2.32,0.26c0.76,0.11,1.53,0.26,2.29,0.44c0.07,0.02,0.14,0.04,0.22,0.06c0.18-0.02,0.38-0.04,0.58-0.06
		l-0.04-0.44c-0.02-0.29-0.04-0.53-0.06-0.75l-0.04-0.47l0.46-0.07c0.93-0.14,1.39-0.22,2.32-0.39l0.14-0.03l0.69,0.26l0.09,0.17
		c0.11,0.21,0.2,0.47,0.27,0.78c0.04,0.17,0.08,0.35,0.12,0.55c0.8-0.11,1.53-0.22,2.21-0.33c0.82-0.13,1.61-0.24,2.37-0.32
		c0.79-0.09,1.52-0.15,2.22-0.17c0.72-0.02,1.46,0,2.22,0.07c0.54,0.05,1.1,0.15,1.64,0.31c0.59,0.17,1.1,0.44,1.54,0.79
		c0.46,0.37,0.81,0.86,1.05,1.46c0.24,0.6,0.33,1.35,0.27,2.22v0c-0.08,1.01-0.34,2.07-0.78,3.16c-0.44,1.1-0.98,2.16-1.61,3.17
		c-0.65,1.05-1.35,2.03-2.07,2.9c-0.64,0.77-1.27,1.49-1.87,2.13c0.55-0.35,1.08-0.73,1.61-1.14c0.57-0.45,1-0.94,1.27-1.45
		c0.24-0.45,0.46-0.79,0.66-1.03c0.22-0.27,0.45-0.46,0.69-0.59c0.06-0.03,0.12-0.04,0.17-0.06c0.02-0.11,0.03-0.23,0.05-0.33
		l0.04-0.13c0.22-0.47,0.54-0.76,0.96-0.86c0.28-0.07,0.58-0.13,0.9-0.17c0.27-0.04,0.53-0.1,0.78-0.2
		c0.17-0.06,0.29-0.26,0.38-0.44c-0.02-0.67-0.08-1.5-0.18-2.47c-0.11-1.04-0.11-2.03,0-2.94c0.08-0.65,0.25-1.15,0.53-1.52
		c0.27-0.35,0.59-0.63,0.96-0.81c0.35-0.17,0.75-0.28,1.17-0.33c0.39-0.04,0.78-0.06,1.13-0.04c2.44,0.08,4.38,0.98,5.92,2.73
		c1.62,1.84,2.84,4.34,3.74,7.66c0.35,1.3,0.66,2.71,0.93,4.23c0.16-0.64,0.32-1.25,0.5-1.84c1-3.25,2.17-5.81,3.57-7.84
		c1.38-1.99,2.86-3.47,4.53-4.5c1.6-0.99,3.22-1.53,4.83-1.59c0.44-0.02,0.94,0.08,1.46,0.27c0.52,0.2,1.03,0.5,1.53,0.91
		c0.51,0.42,0.98,0.96,1.4,1.63c0.02,0.04,0.04,0.09,0.06,0.13l-0.06-0.7c-0.04-0.47-0.08-0.87-0.12-1.22l-0.04-0.34l0.3-0.16
		c1.08-0.56,1.63-0.84,2.71-1.38l0.16-0.08l0.87,0.21l0.1,0.22c0.13,0.29,0.25,0.65,0.35,1.09c0.06,0.26,0.12,0.55,0.19,0.88
		c0.93-0.42,1.8-0.8,2.61-1.14c0.98-0.41,1.93-0.76,2.84-1.05c0.91-0.29,1.81-0.51,2.67-0.67c0.86-0.16,1.76-0.25,2.69-0.27
		c0.66-0.02,1.33,0.04,2,0.18c0.71,0.15,1.35,0.42,1.89,0.82c0.57,0.41,1.02,0.99,1.35,1.71c0.33,0.73,0.48,1.64,0.46,2.78v0
		c-0.02,1.3-0.27,2.73-0.72,4.27c-0.46,1.54-1.04,3.13-1.74,4.72c-0.72,1.64-1.5,3.27-2.33,4.85c-0.84,1.6-1.66,3.13-2.44,4.55
		c-0.02,0.03-0.03,0.06-0.05,0.09c0.78-0.97,1.54-1.95,2.27-2.94c0.72-0.98,1.25-1.91,1.56-2.76c0.26-0.7,0.5-1.23,0.72-1.62
		c0.24-0.41,0.47-0.73,0.73-0.96c0.28-0.25,0.6-0.42,0.95-0.5c0.3-0.06,0.65-0.1,1.09-0.1c0.22,0,0.4,0.04,0.59,0.12
		c0.42,0.19,0.5,0.69,0.53,0.86l0.01,0.06l0,0.06c-0.07,1.32-0.13,2.66-0.17,4.02c-0.02,0.68-0.06,1.36-0.09,2.04
		c-0.03,0.69-0.07,1.38-0.09,2.06c-0.07,2.05-0.06,4.45-0.05,7.23l0,1.91c0,1.79,0.02,3.57,0.04,5.32c0.23-0.21,0.46-0.43,0.72-0.66
		c-0.1-2.27-0.15-4.72-0.15-7.29c0-2.62,0.02-5.29,0.03-7.95c0.02-2.66,0.02-5.25,0.02-7.75c-0.01-2.49-0.06-4.81-0.16-6.91
		c-0.02-0.08-0.08-0.32-0.17-0.64l-0.33-1.19c-0.13-0.45-0.24-0.93-0.35-1.44c-0.13-0.6-0.19-1.09-0.16-1.5
		c0.02-0.48,0.24-0.92,0.61-1.25c0.3-0.27,0.65-0.48,1.04-0.65c0.37-0.16,0.77-0.27,1.17-0.32c0.39-0.05,0.69-0.08,0.91-0.09
		l1.17-0.02l0.12,0.34c0.77,2.1,1.57,4.55,2.4,7.28c0.72,2.37,1.47,4.96,2.36,8.13l2.07,7.42c0.49,1.73,0.9,3.17,1.24,4.29
		c0.58-0.63,1.16-0.93,1.69-0.9c1.08,0.05,1.59,1.55,1.88,2.67c0.09,0.37,0,0.78-0.27,1.22c-0.21,0.35-0.46,0.68-0.72,0.98
		c-0.24,0.28-0.46,0.55-0.66,0.8c-0.09,0.11-0.13,0.19-0.15,0.23c1.21,4.89,2.3,9.03,3.34,12.66c0.61,2.14,1.27,4.14,1.97,5.99
		c-0.07-0.41-0.14-0.84-0.22-1.35c-0.23-1.58-0.5-3.43-0.79-5.56c-0.29-2.14-0.6-4.47-0.92-6.99c-0.32-2.51-0.63-4.89-0.94-7.09
		c-0.31-2.2-0.6-4.11-0.87-5.68c-0.32-1.92-0.54-2.67-0.66-2.96c-0.38-0.86-0.71-1.69-0.98-2.46c-0.27-0.77-0.53-1.54-0.77-2.3
		c-0.24-0.76-0.48-1.53-0.71-2.3c-0.23-0.77-0.5-1.64-0.82-2.6l-0.05-0.16l0.06-0.16c1.05-2.95,1.54-4.27,2.5-6.8l0.12-0.32l0.34,0
		c0.46-0.03,0.73,0.46,0.95,0.96c0.2,0.46,0.41,0.98,0.63,1.58c0.21,0.58,0.43,1.18,0.66,1.77c0.22,0.58,0.42,1.02,0.58,1.3
		c1.99,4.54,3.92,9.13,5.78,13.56c1.93,4.59,3.93,9.33,5.96,13.98c0-0.03,0-0.06,0-0.09l-0.02-0.68c-0.01-0.26-0.01-0.67,0-1.26
		c0.03-2.25,0.03-4.91,0-7.9c-0.03-2.98-0.11-5.95-0.24-8.84c-0.13-2.88-0.32-5.55-0.58-7.94c-0.25-2.35-0.58-4.14-1.02-5.46
		l-0.04-0.11l0.13-1.07c0.02-0.11,0.05-0.26,0.47-1.19c0.27-0.6,0.55-1.22,0.85-1.87c0.3-0.65,0.59-1.22,0.86-1.73
		c0.38-0.71,0.59-1.01,0.95-1.01l0.2,0.04c0.28,0.12,0.58,0.39,1.23,2.38c0.47,1.43,0.98,3.3,1.52,5.56c0.58,2.42,1.22,5.35,1.9,8.7
		c0.69,3.41,1.4,7.03,2.12,10.78l2.12,11.02c0.08,0.42,0.16,0.82,0.24,1.23c0.42-0.48,0.87-1,1.39-1.61
		c-0.21-2.25-0.39-4.68-0.53-7.23c-0.14-2.6-0.27-5.25-0.4-7.89c-0.13-2.64-0.26-5.21-0.41-7.69c-0.14-2.44-0.33-4.76-0.54-6.87
		c-0.02-0.09-0.09-0.33-0.19-0.66l-0.38-1.2c-0.14-0.45-0.28-0.93-0.41-1.43c-0.16-0.59-0.24-1.08-0.24-1.49
		c-0.01-0.48,0.17-0.92,0.51-1.25c0.26-0.25,0.57-0.44,0.97-0.59c0.34-0.13,0.71-0.2,1.09-0.23c0.36-0.02,0.64-0.03,0.84-0.01
		l1.06,0.07l0.12,0.3c0.82,2.08,1.68,4.44,2.62,7.21c0.9,2.65,1.75,5.27,2.57,7.77c0.81,2.5,1.55,4.78,2.23,6.81
		c0.47,1.41,0.89,2.65,1.26,3.65c0.47-0.61,0.94-0.95,1.42-1.02c0.12-0.02,0.24-0.01,0.35,0.01c0.06-0.99,0.13-1.95,0.23-2.87
		c0.37-3.33,0.95-6.26,1.75-8.71c0.8-2.47,1.77-4.46,2.96-6.09c1.1-1.5,2.29-2.69,3.63-3.63c-0.04-0.04-0.09-0.08-0.17-0.12
		c-0.34-0.18-0.7-0.39-1.08-0.64c-0.41-0.27-0.8-0.63-1.15-1.08c-0.38-0.48-0.61-1.12-0.67-1.89c-0.01-0.18,0.02-0.45,0.29-0.72
		c0.15-0.15,0.34-0.28,0.56-0.39c0.21-0.1,0.45-0.19,0.7-0.24c0.26-0.06,0.49-0.09,0.72-0.08c0.39,0.01,0.81,0.23,1.32,0.7
		c0.38,0.35,0.71,0.6,0.99,0.76c1.14,0.7,2.21,1.28,3.2,1.74c0.98,0.45,2,0.83,3.02,1.12c0.21,0.1,0.35,0.23,0.45,0.38
		c-0.11-0.33-0.19-0.63-0.21-0.89c-0.03-0.42,0.15-0.81,0.49-1.1c0.25-0.22,0.55-0.4,0.89-0.54c0.32-0.13,0.67-0.23,1.02-0.29
		c0.34-0.06,0.61-0.09,0.81-0.11l1.03-0.07l0.16,0.26c0.89,1.46,1.82,3.03,2.76,4.67c0.94,1.63,1.84,3.17,2.7,4.59
		c0.81,1.35,1.59,2.6,2.33,3.73c0.52,0.79,0.94,1.39,1.26,1.82c0.22-0.28,0.44-0.5,0.66-0.69c-0.26-0.88-0.49-1.78-0.67-2.7
		c-0.32-1.62-0.5-3.08-0.52-4.35l0-0.08l0.03-0.08c0.14-0.42,0.4-0.76,0.77-0.98c0.28-0.17,0.58-0.34,0.91-0.51
		c0.29-0.15,0.58-0.32,0.85-0.5c0.16-0.1,0.27-0.24,0.36-0.42c-0.13-0.4-0.33-0.9-0.59-1.47c-0.32-0.71-0.51-1.42-0.57-2.12
		c-0.04-0.53,0.06-0.98,0.31-1.33c0.23-0.31,0.52-0.58,0.88-0.77c0.33-0.18,0.71-0.33,1.14-0.44c0.4-0.1,0.79-0.18,1.18-0.24
		c2.36-0.38,4.59-0.29,6.61,0.27c1.97,0.54,3.72,1.37,5.21,2.46c1.54,1.13,2.78,2.41,3.79,3.92c1.04,1.57,1.77,3.21,2.22,5.01
		C313.93,221.73,313.59,223.65,312.39,225.62z"/>
	<path class="st2" d="M164.67,237.42c-0.09-1.87-0.25-3.6-0.48-5.14c-0.22-1.51-0.52-2.78-0.88-3.77c-0.21-0.56-0.56-1.25-1.03-1.32
		c-0.01,0.13-0.03,0.3-0.05,0.44c-0.06,0.4-0.08,0.58-0.28,0.73c-0.3,0.22-0.67,0.16-2.48-0.43l-0.15-0.05
		c-0.78-0.25-1.54-0.63-2.27-1.13c-0.7-0.48-1.36-1.1-1.95-1.84c-0.28-0.34-0.54-0.72-0.77-1.14c-0.04,0.44-0.09,0.88-0.14,1.32
		l-0.05,0.43c-0.15,1.24-0.18,2.8-0.09,4.93c0.07,1.87,0.25,3.88,0.53,5.96c0.28,2.08,0.67,4.21,1.16,6.33
		c0.49,2.12,1.1,4.11,1.8,5.89c0.71,1.79,1.54,3.35,2.46,4.64c0.91,1.27,1.92,2.15,3,2.62c0.21,0.09,0.31,0.05,0.41-0.07
		c0.22-0.23,0.41-0.62,0.57-1.13c0.18-0.57,0.31-1.21,0.41-1.92c0.1-0.74,0.18-1.46,0.24-2.16c0.06-0.62,0.11-1.62,0.15-2.98
		c0.04-1.37,0.06-2.96,0.05-4.73C164.81,241.15,164.76,239.31,164.67,237.42z"/>
	<path class="st2" d="M133.07,213.78c-0.22-0.16-0.47-0.29-0.76-0.41c-0.31-0.13-0.61-0.23-0.91-0.31c-0.62-0.18-1.19-0.31-1.7-0.4
		c-0.49-0.09-1.01-0.14-1.54-0.18c-0.54-0.03-1.11-0.05-1.73-0.08c-0.46-0.02-0.98-0.05-1.56-0.09c0.11,0.71,0.2,1.48,0.29,2.28
		c0.11,1.05,0.22,2.11,0.32,3.15c0.1,1.04,0.2,2.01,0.29,2.9c0.07,0.65,0.13,1.19,0.2,1.6c0.72,0.01,1.41-0.13,2.13-0.4
		c0.89-0.34,1.73-0.86,2.5-1.56c0.76-0.68,1.43-1.53,2-2.53c0.54-0.94,0.87-1.91,0.98-2.88c0.03-0.23,0-0.43-0.09-0.61
		C133.39,214.07,133.26,213.91,133.07,213.78z"/>
	<path class="st2" d="M147.32,215.67c0.08-0.65,0.06-1.19-0.05-1.59c-0.1-0.36-0.23-0.63-0.4-0.8c-0.17-0.17-0.37-0.3-0.61-0.38
		c-0.28-0.1-0.55-0.16-0.82-0.2c-0.58-0.08-1.11-0.11-1.6-0.12c-0.46,0-0.94,0.05-1.43,0.13c-0.5,0.08-1.04,0.19-1.61,0.3
		c-0.49,0.1-1,0.19-1.54,0.27c0.14,0.93,0.28,2.03,0.43,3.26c0.18,1.5,0.34,3.03,0.5,4.59c0.16,1.56,0.3,3,0.42,4.29
		c0.07,0.76,0.13,1.37,0.19,1.84c0.42-0.32,0.88-0.75,1.37-1.28c0.77-0.85,1.53-1.89,2.27-3.09c0.71-1.16,1.35-2.43,1.9-3.77
		C146.88,217.83,147.21,216.67,147.32,215.67z"/>
	<path class="st2" d="M159.03,221.2c0.48,0.91,1.08,1.65,1.78,2.21c0.52,0.42,1.07,0.71,1.66,0.88c-0.11-0.63-0.32-1.39-0.6-2.26
		c-0.4-1.21-0.89-2.37-1.45-3.46c-0.54-1.05-1.13-1.96-1.75-2.69c-0.3-0.36-0.6-0.63-0.86-0.8c-0.06,1.05,0,2.06,0.18,3.02
		C158.2,219.26,158.55,220.3,159.03,221.2z"/>
</g>
</svg>
