<?xml version="1.0" encoding="utf-8"?>
<!-- Generator: Adobe Illustrator 23.0.1, SVG Export Plug-In . SVG Version: 6.00 Build 0)  -->
<svg version="1.1" id="Layer_1" xmlns="http://www.w3.org/2000/svg" xmlns:xlink="http://www.w3.org/1999/xlink" x="0px" y="0px"
	 viewBox="0 0 425.2 425.2" style="enable-background:new 0 0 425.2 425.2;" xml:space="preserve">
<style type="text/css">
	.st0{fill:none;stroke:#FFFFFF;stroke-miterlimit:10;}
	.st1{fill:#231F20;}
	.st2{fill:#FFFFFF;}
</style>
<path class="st2" d="M340.52,188.44L340.52,188.44c-0.14,0-0.27,0.02-0.4,0.02c-0.81-3.54-3.22-6.47-6.43-7.99l-0.62-42.35
	c0.4-0.05,0.8-0.11,1.19-0.19c0.72-0.15,1.42-0.35,2.11-0.61c0.92-0.35,1.77-0.81,2.55-1.41c1.38-1.06,2.4-2.4,3.03-4.02
	c0.43-1.11,0.65-2.27,0.72-3.45c0.07-1.33-0.04-2.64-0.3-3.94c-0.11-0.53-0.22-1.07-0.35-1.59c-0.15-0.57-0.33-1.13-0.5-1.68
	c-0.1-0.32-0.23-0.95-0.23-0.95s-1.11,0.93-1.28,1.06c-0.97,0.74-1.98,1.4-3.09,1.92c-0.92,0.44-1.88,0.76-2.88,0.93
	c-0.59,0.1-1.19,0.1-1.79,0.13c-0.16,0.01-0.33-0.01-0.53-0.02c0.07-0.08,0.12-0.13,0.16-0.17c0.51-0.54,0.97-1.12,1.34-1.76
	c0.38-0.66,0.61-1.38,0.71-2.13c0.2-1.42-0.02-2.76-0.8-3.97c-0.9-1.39-2.22-2.15-3.83-2.41c-0.7-0.11-1.4-0.09-2.1,0.04
	c-0.68,0.12-1.33,0.34-1.93,0.66c-1.07,0.56-1.97,1.33-2.68,2.31c-0.21,0.29-0.48,0.46-0.81,0.55c-0.31,0.08-0.61,0.19-0.92,0.22
	c-0.4,0.04-0.8,0.02-1.2,0c-0.25-0.02-0.5-0.08-0.75,0.01c-0.61,0.22-0.8,0.74-0.72,1.28c0.07,0.43,0.26,0.8,0.49,1.15
	c0.48,0.72,1.09,1.3,1.83,1.75c0.52,0.32,1.08,0.54,1.68,0.61c0.34,0.04,0.67,0.02,0.99-0.06l1.13-0.28l-1.3,1.71
	c-0.18,0.22-0.36,0.45-0.56,0.65c-0.83,0.82-1.57,1.7-2.08,2.75c-0.47,0.96-0.78,1.95-0.81,3.03c-0.03,0.97,0.19,1.89,0.62,2.77
	c0.26,0.52,0.61,0.98,0.97,1.43c0.09,0.11,0.19,0.2,0.28,0.3c0.05,0.06,0.18,0.19,0.21,0.22c0.66,0.63,1.4,1.16,2.2,1.59
	c0.7,0.38,1.43,0.71,2.19,0.93c0.67,0.19,1.35,0.39,2.03,0.53l0.6,41.39c-0.39,0-0.77,0.02-1.15,0.06
	c-15.89-36.59-60.36-62.93-112.75-62.93c-52.63,0-97.28,26.59-112.97,63.45c-1.13-0.37-2.34-0.57-3.6-0.57
	c-5.62,0-10.35,4.01-11.47,9.31c-0.67-0.12-1.36-0.19-2.06-0.19h0c-6.45,0-11.73,5.28-11.73,11.73v25.63
	c0,6.45,5.28,11.73,11.73,11.73h0c0.7,0,1.39-0.07,2.06-0.19c1.12,5.3,5.85,9.31,11.47,9.31c2.47,0,4.76-0.78,6.65-2.09
	c7.12,13.33,18.12,25.08,31.92,34.4l0.9,7.99c0,0,24.99,24.52,77.1,24.52c60.62,0,75.31-25.37,75.31-25.37l0.43-5.66
	c14.45-9.29,26.02-21.18,33.55-34.75c1.42,0.62,2.99,0.96,4.63,0.96l0,0c5.56,0,10.24-3.92,11.43-9.13c0.14,0,0.27,0.02,0.4,0.02h0
	c6.45,0,11.73-5.28,11.73-11.73v-25.63C352.25,193.72,346.98,188.44,340.52,188.44z"/>
</svg>
